<svg xmlns="http://www.w3.org/2000/svg" xmlns:xlink="http://www.w3.org/1999/xlink" viewBox="0 0 24 24" fill="#FFFFFF">
  <path d="M10.515625 3 A 1.5 1.5 0 0 0 9.015625 4.5 A 1.5 1.5 0 0 0 10.515625 6 A 1.5 1.5 0 0 0 12.015625 4.5 A 1.5 1.5 0 0 0 10.515625 3 z M 16.5 4 A 1.5 1.5 0 0 0 15 5.5 A 1.5 1.5 0 0 0 16.5 7 A 1.5 1.5 0 0 0 18 5.5 A 1.5 1.5 0 0 0 16.5 4 z M 5.5 5 A 1.5 1.5 0 0 0 4 6.5 A 1.5 1.5 0 0 0 5.5 8 A 1.5 1.5 0 0 0 7 6.5 A 1.5 1.5 0 0 0 5.5 5 z M 19 9 A 2 2 0 0 0 17 11 A 2 2 0 0 0 19 13 A 2 2 0 0 0 21 11 A 2 2 0 0 0 19 9 z M 4 11 A 1 1 0 0 0 3 12 A 1 1 0 0 0 4 13 A 1 1 0 0 0 5 12 A 1 1 0 0 0 4 11 z M 16.5 15 A 2.5 2.5 0 0 0 14 17.5 A 2.5 2.5 0 0 0 16.5 20 A 2.5 2.5 0 0 0 19 17.5 A 2.5 2.5 0 0 0 16.5 15 z M 6 16 A 1 1 0 0 0 5 17 A 1 1 0 0 0 6 18 A 1 1 0 0 0 7 17 A 1 1 0 0 0 6 16 z M 11 18 A 1 1 0 0 0 10 19 A 1 1 0 0 0 11 20 A 1 1 0 0 0 12 19 A 1 1 0 0 0 11 18 z" fill="#FFFFFF" />
</svg>