<svg xmlns="http://www.w3.org/2000/svg" xmlns:xlink="http://www.w3.org/1999/xlink" viewBox="0 0 48 48"><radialGradient id="WSWh4WagVvBNIS~q094iua" cx="24" cy="24" r="18" fx="23.905" fy="16.289" gradientUnits="userSpaceOnUse"><stop offset="0" stop-color="#ffe16e"/><stop offset=".629" stop-color="#ffd226"/><stop offset=".75" stop-color="#fdcd23"/><stop offset=".899" stop-color="#f6bd1b"/><stop offset=".999" stop-color="#f0af13"/></radialGradient><circle cx="24" cy="24" r="18" fill="url(#WSWh4WagVvBNIS~q094iua)"/><radialGradient id="WSWh4WagVvBNIS~q094iub" cx="-24.326" cy="13.767" r="7.745" gradientTransform="rotate(-20.331 24.005 -111.992)" gradientUnits="userSpaceOnUse"><stop offset=".621" stop-color="#cc9000"/><stop offset="1" stop-color="#cc9000" stop-opacity="0"/></radialGradient><path fill="url(#WSWh4WagVvBNIS~q094iub)" d="M15,27c0,0,1.48,2.437,4.9,3.364C24.247,31.542,26,30,26,30S22.175,26.889,15,27z"/><circle cx="16" cy="17" r="4" fill="#fff"/><circle cx="16" cy="16" r="2" fill="#212121"/><path fill="#fff" d="M34,19c0,2.209-1.791,4-4,4s-4-1.791-4-4c0-1.53,0.859-2.859,2.121-3.532c0.56-0.299,0.981,0.088,1.661,0.088C31.991,15.556,34,16.791,34,19z"/><circle cx="30" cy="18" r="2" fill="#212121"/><radialGradient id="WSWh4WagVvBNIS~q094iuc" cx="1108.428" cy="-147.397" r="6.374" gradientTransform="matrix(-.9087 -.4174 .1567 -.3411 1051.174 439.895)" gradientUnits="userSpaceOnUse"><stop offset="0" stop-color="#1c1911"/><stop offset=".999" stop-color="#171714"/></radialGradient><path fill="url(#WSWh4WagVvBNIS~q094iuc)" d="M15.5,26v-1c8.747,0,11.983,2.123,11.983,2.123l-1.08,1.685C26.404,28.808,23.385,26,15.5,26 z"/><radialGradient id="WSWh4WagVvBNIS~q094iud" cx="15.5" cy="25.22" r=".885" gradientTransform="matrix(-.9087 -.4174 .1567 -.3411 25.633 40.293)" gradientUnits="userSpaceOnUse"><stop offset="0" stop-color="#1c1911"/><stop offset=".999" stop-color="#171714"/></radialGradient><circle cx="15.5" cy="25.5" r=".5" fill="url(#WSWh4WagVvBNIS~q094iud)"/><radialGradient id="WSWh4WagVvBNIS~q094iue" cx="27" cy="27.441" r="1.771" gradientTransform="matrix(.9377 -.3474 .1304 .352 -1.897 27.16)" gradientUnits="userSpaceOnUse"><stop offset="0" stop-color="#1c1911"/><stop offset=".999" stop-color="#171714"/></radialGradient><circle cx="27" cy="28" r="1" fill="url(#WSWh4WagVvBNIS~q094iue)"/><radialGradient id="WSWh4WagVvBNIS~q094iuf" cx="19.893" cy="34.3" r="7.558" gradientUnits="userSpaceOnUse"><stop offset="0" stop-color="#cc9000"/><stop offset="1" stop-color="#cc9000" stop-opacity="0"/></radialGradient><path fill="url(#WSWh4WagVvBNIS~q094iuf)" d="M29.252,34.388c-0.948-0.251-4.483-0.29-5.445-0.102c-1.372,0.268-2.744,0.536-4.115,0.803c-0.438,0.086,2.155,6.788,2.155,6.788c1.246,0.224,2.772-0.146,2.58-1.11c-0.081-0.407,0.582-0.961,0.867-1.267c0.521-0.558-0.308-1.342,0.067-1.4C26.521,37.92,28.602,36.751,29.252,34.388z"/><radialGradient id="WSWh4WagVvBNIS~q094iug" cx="10.928" cy="34.367" r="5.798" gradientTransform="matrix(.9893 -.1462 .2347 1.5884 -7.95 -18.622)" gradientUnits="userSpaceOnUse"><stop offset=".734" stop-color="#cc9000"/><stop offset="1" stop-color="#cc9000" stop-opacity="0"/></radialGradient><path fill="url(#WSWh4WagVvBNIS~q094iug)" d="M12.444,26.502c-0.613,0.766,1.66,5.721,1.443,6.677c-0.309,1.363-0.618,2.726-0.926,4.09c-0.099,0.435,7.081,0.769,7.081,0.769c0.363-0.664-0.139-1.83-1.099-2.043c-0.405-0.09-0.603-0.6-0.767-0.984c-0.3-0.702-1.202-0.138-1.127-0.51C17.095,34.27,16.328,28.635,12.444,26.502z"/><g><path fill="#fff" d="M14.201,45.495c-3.143,0-5.7-2.557-5.7-5.7v-2.116c0-0.569,0.277-1.812,0.503-2.255 c0.761-1.493,0.899-2.408,1.033-3.292l0.062-0.394c0.113-0.687-0.062-2.069-0.179-2.983c-0.042-0.334-0.078-0.618-0.094-0.811 c-0.032-0.392,0.082-0.742,0.33-1.01c0.248-0.27,0.629-0.438,0.993-0.438c0.108,0,0.209,0.015,0.301,0.045 c1.823,0.588,2.687,3.095,2.697,4.604c0.012,1.869,0.219,2.951,1.242,2.951c0.808,0,1.124-0.04,2.174-0.171 c2.394-0.299,8.156-1.477,8.665-1.634c0.559-0.172,0.964-0.249,1.315-0.249c0.813,0,1.196,0.435,1.374,0.8 c0.452,0.929-0.468,1.984-1.265,2.437c-1.587,0.903-3.562,1.266-4.869,1.506c-0.229,0.042-0.474,0.087-0.677,0.129 c0.267,0.242,0.627,0.574,0.726,1.133c0.125,0.719-0.275,1.118-0.515,1.356c-0.053,0.053-0.134,0.133-0.15,0.166 c0.008,0.068,0.054,0.178,0.136,0.363c0.112,0.254,0.252,0.571,0.281,1.029c0.041,0.646-0.503,1.157-0.939,1.567 c-0.117,0.11-0.286,0.268-0.354,0.357c0.006,0.04,0.02,0.076,0.04,0.134c0.087,0.24,0.158,0.497,0.072,0.986 c-0.164,0.933-1.181,1.49-2.72,1.49H14.201z"/><path fill="#1c1911" d="M11.148,26.995c0.055,0,0.106,0.007,0.148,0.02c1.496,0.482,2.341,2.679,2.351,4.132 s0.067,3.448,1.742,3.448c0.83,0,1.151-0.039,2.236-0.174c2.381-0.298,8.181-1.477,8.75-1.652 c0.428-0.132,0.828-0.226,1.168-0.226c0.413,0,0.739,0.139,0.924,0.519c0.311,0.639-0.494,1.461-1.062,1.784 c-2.501,1.422-6.13,1.461-6.064,1.858c0.083,0.499,0.87,0.707,0.997,1.431c0.138,0.789-0.665,0.931-0.665,1.396 c0,0.465,0.366,0.767,0.41,1.463c0.045,0.712-1.299,1.421-1.299,1.828c0,0.408,0.24,0.441,0.125,1.097s-0.917,1.076-2.227,1.076 s-4.48,0-4.48,0c-2.872,0-5.199-2.328-5.199-5.2v-2.116c0-0.514,0.266-1.67,0.449-2.028c0.914-1.792,0.976-2.82,1.142-3.833 c0.166-1.013-0.206-3.17-0.268-3.916C10.271,27.259,10.807,26.995,11.148,26.995 M11.148,25.995L11.148,25.995 c-0.507,0-1.016,0.224-1.361,0.599c-0.34,0.369-0.503,0.863-0.459,1.39c0.016,0.197,0.053,0.489,0.096,0.831 c0.106,0.833,0.282,2.226,0.181,2.841c-0.022,0.133-0.042,0.265-0.062,0.4c-0.128,0.846-0.26,1.72-0.984,3.141 c-0.261,0.511-0.558,1.834-0.558,2.483v2.116c0,3.419,2.781,6.2,6.199,6.2h4.48c2.671,0,3.134-1.457,3.212-1.903 c0.087-0.496,0.038-0.821-0.039-1.076c0.045-0.043,0.091-0.087,0.13-0.123c0.486-0.457,1.152-1.083,1.096-1.963 c-0.035-0.547-0.208-0.939-0.322-1.199c-0.006-0.014-0.013-0.029-0.019-0.044c0.271-0.277,0.74-0.834,0.584-1.726 c-0.049-0.281-0.15-0.518-0.271-0.718c1.337-0.247,3.258-0.626,4.847-1.53c0.9-0.512,2.093-1.803,1.467-3.091 c-0.197-0.404-0.695-1.081-1.823-1.081c-0.404,0-0.855,0.084-1.463,0.271c-0.512,0.156-6.231,1.322-8.579,1.616 c-1.051,0.131-1.334,0.167-2.112,0.167c-0.448,0-0.729-0.411-0.742-2.454c-0.011-1.704-0.962-4.406-3.044-5.078 C11.461,26.018,11.308,25.995,11.148,25.995L11.148,25.995z"/></g><g><path fill="#805b2a" d="M12.226,11.082c0.636-0.432,1.268-0.72,1.968-0.948c0.693-0.22,1.432-0.338,2.182-0.336 c0.748,0,1.516,0.114,2.232,0.373c0.733,0.231,1.391,0.618,2.024,1.034c0.471,0.309,0.602,0.941,0.293,1.412 c-0.309,0.471-0.941,0.602-1.412,0.293c-0.033-0.022-0.064-0.045-0.094-0.07l-0.053-0.045c-0.441-0.373-0.9-0.74-1.423-0.979 c-0.511-0.268-1.073-0.427-1.654-0.505c-0.581-0.079-1.188-0.066-1.79,0.042c-0.592,0.105-1.217,0.309-1.727,0.564l-0.044,0.022 c-0.246,0.123-0.546,0.024-0.669-0.223C11.947,11.491,12.022,11.22,12.226,11.082z"/></g><g><path fill="#805b2a" d="M35.635,15.981c-0.747,0.234-1.461,0.386-2.209,0.501c-0.742,0.112-1.495,0.171-2.255,0.178 c-0.759,0.013-1.526-0.043-2.29-0.16c-0.768-0.102-1.524-0.318-2.275-0.563c-0.535-0.174-0.827-0.75-0.653-1.285 c0.174-0.535,0.75-0.827,1.285-0.653c0.037,0.012,0.073,0.026,0.108,0.042l0.046,0.021c0.593,0.272,1.204,0.536,1.855,0.702 c0.646,0.18,1.314,0.312,1.996,0.382c0.681,0.075,1.373,0.105,2.067,0.083c0.688-0.021,1.403-0.09,2.054-0.211l0.03-0.006 c0.271-0.05,0.532,0.129,0.583,0.4C36.024,15.665,35.873,15.907,35.635,15.981z"/></g></svg>