<?xml version="1.0" standalone="no"?>
<svg viewBox="0 0 200 200" xmlns="http://www.w3.org/2000/svg">
  <path fill="#FF0066" d="M46.2,-78.6C59.5,-72.3,69.8,-59.3,74.8,-45C79.8,-30.8,79.4,-15.4,77.7,-1C76,13.4,72.9,26.9,66.9,39.3C60.9,51.6,51.9,62.9,40.2,71.1C28.6,79.3,14.3,84.3,-0.7,85.5C-15.6,86.7,-31.3,84,-44.7,76.9C-58.2,69.7,-69.4,58.2,-76.9,44.6C-84.4,31.1,-88,15.5,-87.5,0.3C-87,-14.9,-82.3,-29.8,-73.3,-40.7C-64.3,-51.6,-51,-58.4,-38,-65C-25.1,-71.6,-12.6,-77.8,1.9,-81.2C16.4,-84.5,32.8,-84.9,46.2,-78.6Z" transform="translate(100 100)" />
</svg>
